<?xml version="1.0" standalone="no"?><!DOCTYPE svg PUBLIC "-//W3C//DTD SVG 1.1//EN" "http://www.w3.org/Graphics/SVG/1.1/DTD/svg11.dtd"><svg t="1582978305296" class="icon" viewBox="0 0 1024 1024" version="1.1" xmlns="http://www.w3.org/2000/svg" p-id="1892" width="32" height="32" xmlns:xlink="http://www.w3.org/1999/xlink"><defs><style type="text/css"></style></defs><path d="M777.5 767.8c-10.1 0-19.5 5-25 13.4-4.5 6.8-9.7 13.2-15.6 19.1-22.8 22.8-52.8 35.3-84.7 35.3H308c-31.9 0-61.9-12.5-84.7-35.3S188 747.5 188 715.6V308c0-31.9 12.5-61.9 35.3-84.7S276.1 188 308 188h344.1c31.9 0 61.9 12.5 84.7 35.3 5.9 5.9 11.2 12.4 15.7 19.2 5.5 8.4 14.9 13.5 25 13.5 23.9 0 38.2-26.6 25-46.5-32.3-49-87.7-81.4-150.4-81.4H308c-99 0-180 81-180 180v407.6c0 99 81 180 180 180h344.1c62.6 0 118-32.4 150.3-81.3 13.2-20-1-46.6-24.9-46.6z" p-id="1893" fill="#515151"></path><path d="M818 542.1H409.7c-17.6 0-32-14.4-32-32s14.4-32 32-32H818l-69.7-71.7c-12.4-12.5-12.4-32.7 0-45.2 12.5-12.4 32.7-12.4 45.2 0l118.6 122c6.5 6.5 9.9 15.5 9.3 24.7 0.1 1.5 0.1 2.9 0 4.4 0.6 9.2-2.8 18.2-9.3 24.7L793.5 659c-12.5 12.4-32.7 12.4-45.2 0-12.4-12.5-12.4-32.7 0-45.2l69.7-71.7z" p-id="1894" fill="#515151"></path></svg>